<svg width="96" height="32" viewBox="0 0 96 32" fill="none" xmlns="http://www.w3.org/2000/svg">
<g clip-path="url(#clip0_14_21)">
<path d="M30 26H28V17L28.2925 17.2925C28.4805 17.4801 28.7353 17.5854 29.0009 17.5852C29.2665 17.585 29.5211 17.4792 29.7087 17.2913C29.8964 17.1033 30.0017 16.8485 30.0014 16.5829C30.0012 16.3173 29.8955 16.0626 29.7075 15.875L17.4137 3.585C17.0387 3.21021 16.5302 2.99968 16 2.99968C15.4698 2.99968 14.9613 3.21021 14.5863 3.585L2.2925 15.875C2.10503 16.0626 1.99977 16.3171 1.99989 16.5823C2 16.8476 2.10548 17.1019 2.29312 17.2894C2.48077 17.4769 2.7352 17.5821 3.00044 17.582C3.26569 17.5819 3.52003 17.4764 3.7075 17.2888L4 17V26H2C1.73478 26 1.48043 26.1054 1.29289 26.2929C1.10536 26.4804 1 26.7348 1 27C1 27.2652 1.10536 27.5196 1.29289 27.7071C1.48043 27.8946 1.73478 28 2 28H30C30.2652 28 30.5196 27.8946 30.7071 27.7071C30.8946 27.5196 31 27.2652 31 27C31 26.7348 30.8946 26.4804 30.7071 26.2929C30.5196 26.1054 30.2652 26 30 26ZM19 26H13V20C13 19.8674 13.0527 19.7402 13.1464 19.6464C13.2402 19.5527 13.3674 19.5 13.5 19.5H18.5C18.6326 19.5 18.7598 19.5527 18.8536 19.6464C18.9473 19.7402 19 19.8674 19 20V26Z" fill="black"/>
</g>
<g clip-path="url(#clip1_14_21)">
<path d="M50.7075 15.2925C50.8005 15.3854 50.8742 15.4957 50.9246 15.6171C50.9749 15.7385 51.0008 15.8686 51.0008 16C51.0008 16.1314 50.9749 16.2615 50.9246 16.3829C50.8742 16.5043 50.8005 16.6146 50.7075 16.7075L40.7075 26.7075C40.5676 26.8475 40.3894 26.9429 40.1953 26.9815C40.0012 27.0202 39.8 27.0004 39.6172 26.9246C39.4344 26.8489 39.2782 26.7206 39.1683 26.556C39.0584 26.3914 38.9998 26.1979 39 26V6C38.9998 5.80211 39.0584 5.60861 39.1683 5.44402C39.2782 5.27943 39.4344 5.15113 39.6172 5.07538C39.8 4.99963 40.0012 4.97982 40.1953 5.01847C40.3894 5.05712 40.5676 5.15249 40.7075 5.2925L50.7075 15.2925ZM55 5C54.7348 5 54.4804 5.10536 54.2929 5.2929C54.1054 5.48043 54 5.73479 54 6V26C54 26.2652 54.1054 26.5196 54.2929 26.7071C54.4804 26.8946 54.7348 27 55 27C55.2652 27 55.5196 26.8946 55.7071 26.7071C55.8946 26.5196 56 26.2652 56 26V6C56 5.73479 55.8946 5.48043 55.7071 5.2929C55.5196 5.10536 55.2652 5 55 5Z" fill="black"/>
</g>
<g clip-path="url(#clip2_14_21)">
<path d="M89 6V26C89.0002 26.1979 88.9416 26.3914 88.8317 26.556C88.7218 26.7206 88.5656 26.8489 88.3828 26.9246C88.2 27.0004 87.9988 27.0202 87.8047 26.9815C87.6106 26.9429 87.4324 26.8475 87.2925 26.7075L77.2925 16.7075C77.1995 16.6146 77.1258 16.5043 77.0754 16.3829C77.0251 16.2615 76.9992 16.1314 76.9992 16C76.9992 15.8686 77.0251 15.7385 77.0754 15.6171C77.1258 15.4957 77.1995 15.3854 77.2925 15.2925L87.2925 5.2925C87.4324 5.15249 87.6106 5.05712 87.8047 5.01847C87.9988 4.97982 88.2 4.99963 88.3828 5.07538C88.5656 5.15113 88.7218 5.27943 88.8317 5.44402C88.9416 5.60861 89.0002 5.80211 89 6ZM73 5C72.7348 5 72.4804 5.10536 72.2929 5.2929C72.1054 5.48043 72 5.73479 72 6V26C72 26.2652 72.1054 26.5196 72.2929 26.7071C72.4804 26.8946 72.7348 27 73 27C73.2652 27 73.5196 26.8946 73.7071 26.7071C73.8946 26.5196 74 26.2652 74 26V6C74 5.73479 73.8946 5.48043 73.7071 5.2929C73.5196 5.10536 73.2652 5 73 5Z" fill="black"/>
</g>
<defs>
<clipPath id="clip0_14_21">
<rect width="32" height="32" fill="white"/>
</clipPath>
<clipPath id="clip1_14_21">
<rect width="32" height="32" fill="white" transform="translate(32)"/>
</clipPath>
<clipPath id="clip2_14_21">
<rect width="32" height="32" fill="white" transform="translate(64)"/>
</clipPath>
</defs>
</svg>
